<mxfile host="app.diagrams.net" agent="Mozilla/5.0 (Windows NT 10.0; Win64; x64) AppleWebKit/537.36 (KHTML, like Gecko) Chrome/130.0.0.0 Safari/537.36 Edg/130.0.0.0" version="24.7.17">
  <diagram id="ZIMl8o2ZqN2o_6AajQy1" name="Page-1">
    <mxGraphModel dx="2594" dy="886" grid="1" gridSize="10" guides="1" tooltips="1" connect="1" arrows="1" fold="1" page="1" pageScale="1" pageWidth="850" pageHeight="1100" math="0" shadow="0">
      <root>
        <mxCell id="0" />
        <mxCell id="1" parent="0" />
        <mxCell id="Kc346eFX7LDRFWcVNTVt-1" value="students" style="rounded=0;arcSize=10;whiteSpace=wrap;html=1;align=center;" parent="1" vertex="1">
          <mxGeometry x="45" y="220" width="100" height="40" as="geometry" />
        </mxCell>
        <mxCell id="Kc346eFX7LDRFWcVNTVt-2" value="Professors" style="rounded=0;arcSize=10;whiteSpace=wrap;html=1;align=center;" parent="1" vertex="1">
          <mxGeometry x="942.04" y="250" width="100" height="40" as="geometry" />
        </mxCell>
        <mxCell id="Kc346eFX7LDRFWcVNTVt-3" value="news" style="rounded=0;arcSize=10;whiteSpace=wrap;html=1;align=center;" parent="1" vertex="1">
          <mxGeometry x="590" y="747" width="100" height="40" as="geometry" />
        </mxCell>
        <mxCell id="Kc346eFX7LDRFWcVNTVt-4" value="groups" style="rounded=0;arcSize=10;whiteSpace=wrap;html=1;align=center;" parent="1" vertex="1">
          <mxGeometry x="-45" y="560" width="100" height="40" as="geometry" />
        </mxCell>
        <mxCell id="Kc346eFX7LDRFWcVNTVt-5" value="Lectures" style="rounded=0;arcSize=10;whiteSpace=wrap;html=1;align=center;" parent="1" vertex="1">
          <mxGeometry x="470" y="160" width="100" height="40" as="geometry" />
        </mxCell>
        <mxCell id="Kc346eFX7LDRFWcVNTVt-6" value="subjects" style="rounded=0;arcSize=10;whiteSpace=wrap;html=1;align=center;" parent="1" vertex="1">
          <mxGeometry x="770" y="570" width="100" height="40" as="geometry" />
        </mxCell>
        <mxCell id="Kc346eFX7LDRFWcVNTVt-7" value="Assign" style="shape=rhombus;perimeter=rhombusPerimeter;whiteSpace=wrap;html=1;align=center;" parent="1" vertex="1">
          <mxGeometry x="35" y="432.12" width="120" height="60" as="geometry" />
        </mxCell>
        <mxCell id="Kc346eFX7LDRFWcVNTVt-8" value="Teach" style="shape=rhombus;perimeter=rhombusPerimeter;whiteSpace=wrap;html=1;align=center;" parent="1" vertex="1">
          <mxGeometry x="830" y="406" width="100" height="50" as="geometry" />
        </mxCell>
        <mxCell id="Kc346eFX7LDRFWcVNTVt-9" value="" style="endArrow=none;html=1;rounded=0;exitX=0.5;exitY=0;exitDx=0;exitDy=0;entryX=0.5;entryY=1;entryDx=0;entryDy=0;" parent="1" source="Kc346eFX7LDRFWcVNTVt-8" target="Kc346eFX7LDRFWcVNTVt-2" edge="1">
          <mxGeometry relative="1" as="geometry">
            <mxPoint x="765" y="240" as="sourcePoint" />
            <mxPoint x="790" y="290" as="targetPoint" />
          </mxGeometry>
        </mxCell>
        <mxCell id="Kc346eFX7LDRFWcVNTVt-11" value="" style="endArrow=none;html=1;rounded=0;exitX=0.75;exitY=0;exitDx=0;exitDy=0;entryX=0.5;entryY=1;entryDx=0;entryDy=0;" parent="1" source="Kc346eFX7LDRFWcVNTVt-6" target="Kc346eFX7LDRFWcVNTVt-8" edge="1">
          <mxGeometry relative="1" as="geometry">
            <mxPoint x="737.5" y="40" as="sourcePoint" />
            <mxPoint x="742.5" y="150" as="targetPoint" />
          </mxGeometry>
        </mxCell>
        <mxCell id="Kc346eFX7LDRFWcVNTVt-12" value="&amp;nbsp;M&amp;nbsp;" style="edgeLabel;html=1;align=center;verticalAlign=middle;resizable=0;points=[];" parent="Kc346eFX7LDRFWcVNTVt-11" vertex="1" connectable="0">
          <mxGeometry x="0.0294" y="1" relative="1" as="geometry">
            <mxPoint x="1" as="offset" />
          </mxGeometry>
        </mxCell>
        <mxCell id="Kc346eFX7LDRFWcVNTVt-13" value="Give" style="shape=rhombus;perimeter=rhombusPerimeter;whiteSpace=wrap;html=1;align=center;" parent="1" vertex="1">
          <mxGeometry x="740" y="170" width="100" height="50" as="geometry" />
        </mxCell>
        <mxCell id="Kc346eFX7LDRFWcVNTVt-14" value="" style="endArrow=none;html=1;rounded=0;entryX=0.5;entryY=0;entryDx=0;entryDy=0;exitX=1;exitY=0.5;exitDx=0;exitDy=0;" parent="1" source="Kc346eFX7LDRFWcVNTVt-13" target="Kc346eFX7LDRFWcVNTVt-2" edge="1">
          <mxGeometry relative="1" as="geometry">
            <mxPoint x="800" y="300" as="sourcePoint" />
            <mxPoint x="710" y="380" as="targetPoint" />
          </mxGeometry>
        </mxCell>
        <mxCell id="Kc346eFX7LDRFWcVNTVt-16" value="Attend" style="shape=rhombus;perimeter=rhombusPerimeter;whiteSpace=wrap;html=1;align=center;" parent="1" vertex="1">
          <mxGeometry x="258.75" y="200" width="92.5" height="50" as="geometry" />
        </mxCell>
        <mxCell id="Kc346eFX7LDRFWcVNTVt-21" value="IsPresence" style="ellipse;whiteSpace=wrap;html=1;align=center;" parent="1" vertex="1">
          <mxGeometry x="292.75" y="140" width="80" height="30" as="geometry" />
        </mxCell>
        <mxCell id="Kc346eFX7LDRFWcVNTVt-22" value="bonus&amp;nbsp;" style="ellipse;whiteSpace=wrap;html=1;align=center;" parent="1" vertex="1">
          <mxGeometry x="191.75" y="140" width="80" height="30" as="geometry" />
        </mxCell>
        <mxCell id="Kc346eFX7LDRFWcVNTVt-23" value="" style="endArrow=none;html=1;rounded=0;entryX=0.5;entryY=0;entryDx=0;entryDy=0;exitX=0.5;exitY=1;exitDx=0;exitDy=0;" parent="1" source="Kc346eFX7LDRFWcVNTVt-21" target="Kc346eFX7LDRFWcVNTVt-16" edge="1">
          <mxGeometry relative="1" as="geometry">
            <mxPoint x="397.5" y="200" as="sourcePoint" />
            <mxPoint x="-12.5" y="-90" as="targetPoint" />
          </mxGeometry>
        </mxCell>
        <mxCell id="Kc346eFX7LDRFWcVNTVt-24" value="" style="endArrow=none;html=1;rounded=0;entryX=0;entryY=0;entryDx=0;entryDy=0;exitX=0.5;exitY=1;exitDx=0;exitDy=0;" parent="1" source="Kc346eFX7LDRFWcVNTVt-22" target="Kc346eFX7LDRFWcVNTVt-16" edge="1">
          <mxGeometry relative="1" as="geometry">
            <mxPoint x="-42.5" y="40" as="sourcePoint" />
            <mxPoint x="117.5" y="40" as="targetPoint" />
          </mxGeometry>
        </mxCell>
        <mxCell id="Kc346eFX7LDRFWcVNTVt-25" value="&amp;nbsp;N&amp;nbsp;" style="endArrow=none;html=1;rounded=0;exitX=0.5;exitY=1;exitDx=0;exitDy=0;entryX=0.5;entryY=0;entryDx=0;entryDy=0;" parent="1" source="Kc346eFX7LDRFWcVNTVt-7" target="Kc346eFX7LDRFWcVNTVt-4" edge="1">
          <mxGeometry relative="1" as="geometry">
            <mxPoint x="280" y="540" as="sourcePoint" />
            <mxPoint x="440" y="540" as="targetPoint" />
          </mxGeometry>
        </mxCell>
        <mxCell id="Kc346eFX7LDRFWcVNTVt-26" value="" style="endArrow=none;html=1;rounded=0;exitX=1;exitY=0;exitDx=0;exitDy=0;entryX=0;entryY=0.5;entryDx=0;entryDy=0;" parent="1" source="Kc346eFX7LDRFWcVNTVt-1" target="Kc346eFX7LDRFWcVNTVt-16" edge="1">
          <mxGeometry relative="1" as="geometry">
            <mxPoint x="150" y="560" as="sourcePoint" />
            <mxPoint x="310" y="560" as="targetPoint" />
          </mxGeometry>
        </mxCell>
        <mxCell id="Kc346eFX7LDRFWcVNTVt-28" value="" style="endArrow=none;html=1;rounded=0;entryX=0;entryY=0.5;entryDx=0;entryDy=0;exitX=1;exitY=0.5;exitDx=0;exitDy=0;" parent="1" source="Kc346eFX7LDRFWcVNTVt-16" target="Kc346eFX7LDRFWcVNTVt-5" edge="1">
          <mxGeometry relative="1" as="geometry">
            <mxPoint x="480" y="240" as="sourcePoint" />
            <mxPoint x="310" y="760" as="targetPoint" />
            <Array as="points" />
          </mxGeometry>
        </mxCell>
        <mxCell id="Kc346eFX7LDRFWcVNTVt-29" value="&amp;nbsp;N&amp;nbsp;" style="edgeLabel;html=1;align=center;verticalAlign=middle;resizable=0;points=[];" parent="Kc346eFX7LDRFWcVNTVt-28" vertex="1" connectable="0">
          <mxGeometry x="-0.033" y="-3" relative="1" as="geometry">
            <mxPoint y="-3" as="offset" />
          </mxGeometry>
        </mxCell>
        <mxCell id="Kc346eFX7LDRFWcVNTVt-30" value="" style="endArrow=none;html=1;rounded=0;entryX=0.5;entryY=0;entryDx=0;entryDy=0;exitX=1;exitY=1;exitDx=0;exitDy=0;" parent="1" source="Kc346eFX7LDRFWcVNTVt-108" target="Kc346eFX7LDRFWcVNTVt-5" edge="1">
          <mxGeometry relative="1" as="geometry">
            <mxPoint x="470" y="140" as="sourcePoint" />
            <mxPoint x="510" y="320" as="targetPoint" />
          </mxGeometry>
        </mxCell>
        <mxCell id="Kc346eFX7LDRFWcVNTVt-31" value="" style="endArrow=none;html=1;rounded=0;exitX=1;exitY=0.5;exitDx=0;exitDy=0;entryX=0;entryY=0;entryDx=0;entryDy=0;" parent="1" source="Kc346eFX7LDRFWcVNTVt-7" target="Kc346eFX7LDRFWcVNTVt-6" edge="1">
          <mxGeometry relative="1" as="geometry">
            <mxPoint x="130" y="450" as="sourcePoint" />
            <mxPoint x="450" y="520" as="targetPoint" />
          </mxGeometry>
        </mxCell>
        <mxCell id="KKD49QApAfMUJWGPO-2e-43" value="&amp;nbsp;N&amp;nbsp;" style="edgeLabel;html=1;align=center;verticalAlign=middle;resizable=0;points=[];" vertex="1" connectable="0" parent="Kc346eFX7LDRFWcVNTVt-31">
          <mxGeometry x="-0.0803" y="-2" relative="1" as="geometry">
            <mxPoint as="offset" />
          </mxGeometry>
        </mxCell>
        <mxCell id="Kc346eFX7LDRFWcVNTVt-33" value="Instructors" style="rounded=0;arcSize=10;whiteSpace=wrap;html=1;align=center;" parent="1" vertex="1">
          <mxGeometry x="78.5" y="700" width="100" height="40" as="geometry" />
        </mxCell>
        <mxCell id="Kc346eFX7LDRFWcVNTVt-34" value="Teach" style="shape=rhombus;perimeter=rhombusPerimeter;whiteSpace=wrap;html=1;align=center;" parent="1" vertex="1">
          <mxGeometry x="-45" y="772.5" width="90" height="50" as="geometry" />
        </mxCell>
        <mxCell id="Kc346eFX7LDRFWcVNTVt-35" value="" style="endArrow=none;html=1;rounded=0;exitX=0.5;exitY=1;exitDx=0;exitDy=0;entryX=0.5;entryY=0;entryDx=0;entryDy=0;" parent="1" source="Kc346eFX7LDRFWcVNTVt-4" target="Kc346eFX7LDRFWcVNTVt-34" edge="1">
          <mxGeometry relative="1" as="geometry">
            <mxPoint x="320" y="510" as="sourcePoint" />
            <mxPoint x="480" y="510" as="targetPoint" />
          </mxGeometry>
        </mxCell>
        <mxCell id="Kc346eFX7LDRFWcVNTVt-36" value="&amp;nbsp;M&amp;nbsp;" style="edgeLabel;html=1;align=center;verticalAlign=middle;resizable=0;points=[];" parent="Kc346eFX7LDRFWcVNTVt-35" connectable="0" vertex="1">
          <mxGeometry x="0.041" relative="1" as="geometry">
            <mxPoint as="offset" />
          </mxGeometry>
        </mxCell>
        <mxCell id="Kc346eFX7LDRFWcVNTVt-37" value="" style="endArrow=none;html=1;rounded=0;exitX=0;exitY=1;exitDx=0;exitDy=0;entryX=0.689;entryY=0.223;entryDx=0;entryDy=0;entryPerimeter=0;" parent="1" source="Kc346eFX7LDRFWcVNTVt-33" target="Kc346eFX7LDRFWcVNTVt-34" edge="1">
          <mxGeometry relative="1" as="geometry">
            <mxPoint x="55.00000000000023" y="750" as="sourcePoint" />
            <mxPoint x="455" y="570" as="targetPoint" />
          </mxGeometry>
        </mxCell>
        <mxCell id="Kc346eFX7LDRFWcVNTVt-38" value="&amp;nbsp;N&amp;nbsp;" style="edgeLabel;html=1;align=center;verticalAlign=middle;resizable=0;points=[];" parent="Kc346eFX7LDRFWcVNTVt-37" connectable="0" vertex="1">
          <mxGeometry x="0.0102" y="3" relative="1" as="geometry">
            <mxPoint x="-4" y="-1" as="offset" />
          </mxGeometry>
        </mxCell>
        <mxCell id="Kc346eFX7LDRFWcVNTVt-39" value="" style="endArrow=none;html=1;rounded=0;exitX=1;exitY=0.5;exitDx=0;exitDy=0;entryX=0;entryY=1;entryDx=0;entryDy=0;" parent="1" source="Kc346eFX7LDRFWcVNTVt-34" target="Kc346eFX7LDRFWcVNTVt-6" edge="1">
          <mxGeometry relative="1" as="geometry">
            <mxPoint x="320" y="580" as="sourcePoint" />
            <mxPoint x="480" y="580" as="targetPoint" />
          </mxGeometry>
        </mxCell>
        <mxCell id="Kc346eFX7LDRFWcVNTVt-40" value="&amp;nbsp;N&amp;nbsp;" style="edgeLabel;html=1;align=center;verticalAlign=middle;resizable=0;points=[];" parent="Kc346eFX7LDRFWcVNTVt-39" connectable="0" vertex="1">
          <mxGeometry x="-0.0958" y="3" relative="1" as="geometry">
            <mxPoint y="2" as="offset" />
          </mxGeometry>
        </mxCell>
        <mxCell id="Kc346eFX7LDRFWcVNTVt-41" value="Sessions" style="rounded=0;arcSize=10;whiteSpace=wrap;html=1;align=center;" parent="1" vertex="1">
          <mxGeometry x="272.75" y="571" width="100" height="40" as="geometry" />
        </mxCell>
        <mxCell id="Kc346eFX7LDRFWcVNTVt-42" value="Give" style="shape=rhombus;perimeter=rhombusPerimeter;whiteSpace=wrap;html=1;align=center;" parent="1" vertex="1">
          <mxGeometry x="130.02" y="635" width="68.5" height="40" as="geometry" />
        </mxCell>
        <mxCell id="Kc346eFX7LDRFWcVNTVt-43" value="" style="endArrow=none;html=1;rounded=0;exitX=0;exitY=0.5;exitDx=0;exitDy=0;entryX=0.5;entryY=0;entryDx=0;entryDy=0;" parent="1" source="Kc346eFX7LDRFWcVNTVt-42" target="Kc346eFX7LDRFWcVNTVt-33" edge="1">
          <mxGeometry relative="1" as="geometry">
            <mxPoint x="260" y="670" as="sourcePoint" />
            <mxPoint x="160" y="720" as="targetPoint" />
          </mxGeometry>
        </mxCell>
        <mxCell id="Kc346eFX7LDRFWcVNTVt-44" value="&amp;nbsp;1&amp;nbsp;" style="edgeLabel;html=1;align=center;verticalAlign=middle;resizable=0;points=[];" parent="Kc346eFX7LDRFWcVNTVt-43" vertex="1" connectable="0">
          <mxGeometry x="-0.0742" relative="1" as="geometry">
            <mxPoint as="offset" />
          </mxGeometry>
        </mxCell>
        <mxCell id="Kc346eFX7LDRFWcVNTVt-47" value="" style="endArrow=none;html=1;rounded=0;entryX=0;entryY=0.5;entryDx=0;entryDy=0;exitX=1;exitY=0.5;exitDx=0;exitDy=0;" parent="1" source="Kc346eFX7LDRFWcVNTVt-66" target="Kc346eFX7LDRFWcVNTVt-6" edge="1">
          <mxGeometry relative="1" as="geometry">
            <mxPoint x="380" y="600" as="sourcePoint" />
            <mxPoint x="540" y="600" as="targetPoint" />
          </mxGeometry>
        </mxCell>
        <mxCell id="Kc346eFX7LDRFWcVNTVt-48" value="&amp;nbsp;1&amp;nbsp;" style="edgeLabel;html=1;align=center;verticalAlign=middle;resizable=0;points=[];" parent="Kc346eFX7LDRFWcVNTVt-47" vertex="1" connectable="0">
          <mxGeometry x="-0.057" relative="1" as="geometry">
            <mxPoint as="offset" />
          </mxGeometry>
        </mxCell>
        <mxCell id="Kc346eFX7LDRFWcVNTVt-49" value="Attend" style="shape=rhombus;perimeter=rhombusPerimeter;whiteSpace=wrap;html=1;align=center;" parent="1" vertex="1">
          <mxGeometry x="238.75" y="401" width="97.5" height="50" as="geometry" />
        </mxCell>
        <mxCell id="Kc346eFX7LDRFWcVNTVt-50" value="IsPresence" style="ellipse;whiteSpace=wrap;html=1;align=center;" parent="1" vertex="1">
          <mxGeometry x="292.75" y="360" width="80" height="30" as="geometry" />
        </mxCell>
        <mxCell id="Kc346eFX7LDRFWcVNTVt-51" value="bonus" style="ellipse;whiteSpace=wrap;html=1;align=center;" parent="1" vertex="1">
          <mxGeometry x="230" y="353" width="57.5" height="30" as="geometry" />
        </mxCell>
        <mxCell id="Kc346eFX7LDRFWcVNTVt-52" value="" style="endArrow=none;html=1;rounded=0;entryX=0.5;entryY=0;entryDx=0;entryDy=0;exitX=0;exitY=0.5;exitDx=0;exitDy=0;" parent="1" source="Kc346eFX7LDRFWcVNTVt-50" target="Kc346eFX7LDRFWcVNTVt-49" edge="1">
          <mxGeometry relative="1" as="geometry">
            <mxPoint x="407.5" y="440" as="sourcePoint" />
            <mxPoint x="-2.5" y="150" as="targetPoint" />
          </mxGeometry>
        </mxCell>
        <mxCell id="Kc346eFX7LDRFWcVNTVt-53" value="" style="endArrow=none;html=1;rounded=0;entryX=0.5;entryY=0;entryDx=0;entryDy=0;exitX=0.5;exitY=1;exitDx=0;exitDy=0;" parent="1" source="Kc346eFX7LDRFWcVNTVt-51" target="Kc346eFX7LDRFWcVNTVt-49" edge="1">
          <mxGeometry relative="1" as="geometry">
            <mxPoint x="-32.5" y="280" as="sourcePoint" />
            <mxPoint x="127.5" y="280" as="targetPoint" />
          </mxGeometry>
        </mxCell>
        <mxCell id="Kc346eFX7LDRFWcVNTVt-54" value="" style="endArrow=none;html=1;rounded=0;exitX=1;exitY=1;exitDx=0;exitDy=0;entryX=0;entryY=0.5;entryDx=0;entryDy=0;" parent="1" source="Kc346eFX7LDRFWcVNTVt-1" target="Kc346eFX7LDRFWcVNTVt-49" edge="1">
          <mxGeometry relative="1" as="geometry">
            <mxPoint x="220" y="520" as="sourcePoint" />
            <mxPoint x="320" y="800" as="targetPoint" />
          </mxGeometry>
        </mxCell>
        <mxCell id="Kc346eFX7LDRFWcVNTVt-55" value="M" style="edgeLabel;html=1;align=center;verticalAlign=middle;resizable=0;points=[];" parent="Kc346eFX7LDRFWcVNTVt-54" vertex="1" connectable="0">
          <mxGeometry x="-0.0023" y="-4" relative="1" as="geometry">
            <mxPoint x="3" y="-4" as="offset" />
          </mxGeometry>
        </mxCell>
        <mxCell id="Kc346eFX7LDRFWcVNTVt-56" value="" style="endArrow=none;html=1;rounded=0;entryX=0.5;entryY=0;entryDx=0;entryDy=0;exitX=0.5;exitY=1;exitDx=0;exitDy=0;jumpStyle=arc;jumpSize=10;" parent="1" source="Kc346eFX7LDRFWcVNTVt-49" target="Kc346eFX7LDRFWcVNTVt-41" edge="1">
          <mxGeometry relative="1" as="geometry">
            <mxPoint x="490" y="480" as="sourcePoint" />
            <mxPoint x="500" y="410" as="targetPoint" />
            <Array as="points" />
          </mxGeometry>
        </mxCell>
        <mxCell id="Kc346eFX7LDRFWcVNTVt-57" value="&amp;nbsp;N&amp;nbsp;" style="edgeLabel;html=1;align=center;verticalAlign=middle;resizable=0;points=[];" parent="Kc346eFX7LDRFWcVNTVt-56" connectable="0" vertex="1">
          <mxGeometry x="0.2332" relative="1" as="geometry">
            <mxPoint x="-1" as="offset" />
          </mxGeometry>
        </mxCell>
        <mxCell id="Kc346eFX7LDRFWcVNTVt-58" value="" style="shape=link;html=1;rounded=0;exitX=1.01;exitY=0.598;exitDx=0;exitDy=0;exitPerimeter=0;entryX=0.014;entryY=0.506;entryDx=0;entryDy=0;entryPerimeter=0;" parent="1" source="Kc346eFX7LDRFWcVNTVt-5" target="Kc346eFX7LDRFWcVNTVt-13" edge="1">
          <mxGeometry relative="1" as="geometry">
            <mxPoint x="630" y="260" as="sourcePoint" />
            <mxPoint x="780" y="205" as="targetPoint" />
          </mxGeometry>
        </mxCell>
        <mxCell id="Kc346eFX7LDRFWcVNTVt-59" value="&amp;nbsp;M&amp;nbsp;" style="edgeLabel;html=1;align=center;verticalAlign=middle;resizable=0;points=[];" parent="Kc346eFX7LDRFWcVNTVt-58" connectable="0" vertex="1">
          <mxGeometry x="-0.0547" y="-4" relative="1" as="geometry">
            <mxPoint x="4" y="-3" as="offset" />
          </mxGeometry>
        </mxCell>
        <mxCell id="Kc346eFX7LDRFWcVNTVt-60" value="" style="shape=link;html=1;rounded=0;exitX=1;exitY=0;exitDx=0;exitDy=0;entryX=0;entryY=1;entryDx=0;entryDy=0;" parent="1" source="Kc346eFX7LDRFWcVNTVt-42" target="Kc346eFX7LDRFWcVNTVt-41" edge="1">
          <mxGeometry relative="1" as="geometry">
            <mxPoint x="170" y="610" as="sourcePoint" />
            <mxPoint x="330" y="610" as="targetPoint" />
          </mxGeometry>
        </mxCell>
        <mxCell id="Kc346eFX7LDRFWcVNTVt-61" value="&amp;nbsp;M&amp;nbsp;" style="edgeLabel;html=1;align=center;verticalAlign=middle;resizable=0;points=[];" parent="Kc346eFX7LDRFWcVNTVt-60" connectable="0" vertex="1">
          <mxGeometry x="0.1032" y="2" relative="1" as="geometry">
            <mxPoint y="2" as="offset" />
          </mxGeometry>
        </mxCell>
        <mxCell id="Kc346eFX7LDRFWcVNTVt-62" value="" style="endArrow=none;html=1;rounded=0;" parent="1" edge="1">
          <mxGeometry relative="1" as="geometry">
            <mxPoint x="-240" y="80" as="sourcePoint" />
            <mxPoint x="1190" y="80" as="targetPoint" />
          </mxGeometry>
        </mxCell>
        <mxCell id="Kc346eFX7LDRFWcVNTVt-63" value="" style="endArrow=none;html=1;rounded=0;" parent="1" edge="1">
          <mxGeometry relative="1" as="geometry">
            <mxPoint x="1190" y="830" as="sourcePoint" />
            <mxPoint x="-240" y="840" as="targetPoint" />
          </mxGeometry>
        </mxCell>
        <mxCell id="Kc346eFX7LDRFWcVNTVt-64" value="" style="shape=link;html=1;rounded=0;exitX=0.5;exitY=0;exitDx=0;exitDy=0;entryX=0.308;entryY=0.984;entryDx=0;entryDy=0;entryPerimeter=0;" parent="1" source="Kc346eFX7LDRFWcVNTVt-7" target="Kc346eFX7LDRFWcVNTVt-1" edge="1">
          <mxGeometry relative="1" as="geometry">
            <mxPoint x="190" y="420" as="sourcePoint" />
            <mxPoint x="350" y="420" as="targetPoint" />
          </mxGeometry>
        </mxCell>
        <mxCell id="Kc346eFX7LDRFWcVNTVt-65" value="&amp;nbsp;M&amp;nbsp;" style="edgeLabel;html=1;align=center;verticalAlign=middle;resizable=0;points=[];" parent="Kc346eFX7LDRFWcVNTVt-64" connectable="0" vertex="1">
          <mxGeometry x="0.0687" relative="1" as="geometry">
            <mxPoint as="offset" />
          </mxGeometry>
        </mxCell>
        <mxCell id="Kc346eFX7LDRFWcVNTVt-66" value="Belong" style="shape=rhombus;perimeter=rhombusPerimeter;whiteSpace=wrap;html=1;align=center;" parent="1" vertex="1">
          <mxGeometry x="489" y="585" width="105" height="50" as="geometry" />
        </mxCell>
        <mxCell id="Kc346eFX7LDRFWcVNTVt-67" value="" style="shape=link;html=1;rounded=0;exitX=1;exitY=0.5;exitDx=0;exitDy=0;entryX=0;entryY=0.5;entryDx=0;entryDy=0;" parent="1" source="Kc346eFX7LDRFWcVNTVt-41" target="Kc346eFX7LDRFWcVNTVt-66" edge="1">
          <mxGeometry relative="1" as="geometry">
            <mxPoint x="450" y="540" as="sourcePoint" />
            <mxPoint x="610" y="540" as="targetPoint" />
          </mxGeometry>
        </mxCell>
        <mxCell id="Kc346eFX7LDRFWcVNTVt-68" value="&amp;nbsp;N&amp;nbsp;" style="edgeLabel;html=1;align=center;verticalAlign=middle;resizable=0;points=[];" parent="Kc346eFX7LDRFWcVNTVt-67" vertex="1" connectable="0">
          <mxGeometry x="-0.0631" y="-2" relative="1" as="geometry">
            <mxPoint y="-2" as="offset" />
          </mxGeometry>
        </mxCell>
        <mxCell id="Kc346eFX7LDRFWcVNTVt-69" value="" style="endArrow=none;html=1;rounded=0;entryX=0.5;entryY=0;entryDx=0;entryDy=0;exitX=0.5;exitY=1;exitDx=0;exitDy=0;" parent="1" source="Kc346eFX7LDRFWcVNTVt-71" target="Kc346eFX7LDRFWcVNTVt-6" edge="1">
          <mxGeometry relative="1" as="geometry">
            <mxPoint x="390" y="419" as="sourcePoint" />
            <mxPoint x="680" y="449" as="targetPoint" />
          </mxGeometry>
        </mxCell>
        <mxCell id="Kc346eFX7LDRFWcVNTVt-70" value="&amp;nbsp;1&amp;nbsp;" style="edgeLabel;html=1;align=center;verticalAlign=middle;resizable=0;points=[];" parent="Kc346eFX7LDRFWcVNTVt-69" vertex="1" connectable="0">
          <mxGeometry x="-0.057" relative="1" as="geometry">
            <mxPoint as="offset" />
          </mxGeometry>
        </mxCell>
        <mxCell id="Kc346eFX7LDRFWcVNTVt-71" value="Belong" style="shape=rhombus;perimeter=rhombusPerimeter;whiteSpace=wrap;html=1;align=center;" parent="1" vertex="1">
          <mxGeometry x="653.75" y="390" width="105" height="50" as="geometry" />
        </mxCell>
        <mxCell id="Kc346eFX7LDRFWcVNTVt-72" value="" style="shape=link;html=1;rounded=0;exitX=1;exitY=1;exitDx=0;exitDy=0;entryX=0.5;entryY=0;entryDx=0;entryDy=0;" parent="1" source="Kc346eFX7LDRFWcVNTVt-5" target="Kc346eFX7LDRFWcVNTVt-71" edge="1">
          <mxGeometry relative="1" as="geometry">
            <mxPoint x="312" y="409" as="sourcePoint" />
            <mxPoint x="620" y="359" as="targetPoint" />
          </mxGeometry>
        </mxCell>
        <mxCell id="Kc346eFX7LDRFWcVNTVt-73" value="&amp;nbsp;N&amp;nbsp;" style="edgeLabel;html=1;align=center;verticalAlign=middle;resizable=0;points=[];" parent="Kc346eFX7LDRFWcVNTVt-72" vertex="1" connectable="0">
          <mxGeometry x="-0.0631" y="-2" relative="1" as="geometry">
            <mxPoint y="-2" as="offset" />
          </mxGeometry>
        </mxCell>
        <mxCell id="Kc346eFX7LDRFWcVNTVt-76" value="Active" style="ellipse;whiteSpace=wrap;html=1;align=center;" parent="1" vertex="1">
          <mxGeometry x="616" y="102.5" width="64" height="25" as="geometry" />
        </mxCell>
        <mxCell id="Kc346eFX7LDRFWcVNTVt-77" value="" style="endArrow=none;html=1;rounded=0;entryX=0;entryY=1;entryDx=0;entryDy=0;exitX=0.75;exitY=0;exitDx=0;exitDy=0;" parent="1" source="Kc346eFX7LDRFWcVNTVt-5" target="Kc346eFX7LDRFWcVNTVt-76" edge="1">
          <mxGeometry relative="1" as="geometry">
            <mxPoint x="560" y="310" as="sourcePoint" />
            <mxPoint x="530" y="530" as="targetPoint" />
          </mxGeometry>
        </mxCell>
        <mxCell id="Kc346eFX7LDRFWcVNTVt-87" value="Code" style="ellipse;whiteSpace=wrap;html=1;align=center;fontStyle=4;" parent="1" vertex="1">
          <mxGeometry x="1120" y="170" width="65" height="40" as="geometry" />
        </mxCell>
        <mxCell id="Kc346eFX7LDRFWcVNTVt-101" value="" style="endArrow=none;html=1;rounded=0;exitX=0;exitY=1;exitDx=0;exitDy=0;entryX=0.854;entryY=-0.075;entryDx=0;entryDy=0;entryPerimeter=0;" parent="1" source="Kc346eFX7LDRFWcVNTVt-87" target="Kc346eFX7LDRFWcVNTVt-2" edge="1">
          <mxGeometry relative="1" as="geometry">
            <mxPoint x="840" y="360" as="sourcePoint" />
            <mxPoint x="1000" y="310" as="targetPoint" />
          </mxGeometry>
        </mxCell>
        <mxCell id="Kc346eFX7LDRFWcVNTVt-108" value="Code" style="ellipse;whiteSpace=wrap;html=1;align=center;fontStyle=4;" parent="1" vertex="1">
          <mxGeometry x="460" y="100" width="60" height="30" as="geometry" />
        </mxCell>
        <mxCell id="Kc346eFX7LDRFWcVNTVt-110" value="Code" style="ellipse;whiteSpace=wrap;html=1;align=center;fontStyle=4;" parent="1" vertex="1">
          <mxGeometry x="272.5" y="675" width="65" height="32.5" as="geometry" />
        </mxCell>
        <mxCell id="Kc346eFX7LDRFWcVNTVt-111" value="id" style="ellipse;whiteSpace=wrap;html=1;align=center;fontStyle=4;" parent="1" vertex="1">
          <mxGeometry x="-100" y="491" width="70" height="29" as="geometry" />
        </mxCell>
        <mxCell id="Kc346eFX7LDRFWcVNTVt-112" value="id" style="ellipse;whiteSpace=wrap;html=1;align=center;fontStyle=4;" parent="1" vertex="1">
          <mxGeometry x="551" y="690" width="65" height="25" as="geometry" />
        </mxCell>
        <mxCell id="Kc346eFX7LDRFWcVNTVt-118" value="" style="endArrow=none;html=1;rounded=0;entryX=0.5;entryY=0;entryDx=0;entryDy=0;exitX=0.5;exitY=1;exitDx=0;exitDy=0;" parent="1" source="Kc346eFX7LDRFWcVNTVt-41" target="Kc346eFX7LDRFWcVNTVt-110" edge="1">
          <mxGeometry relative="1" as="geometry">
            <mxPoint x="307.75" y="590" as="sourcePoint" />
            <mxPoint x="467.75" y="590" as="targetPoint" />
          </mxGeometry>
        </mxCell>
        <mxCell id="Kc346eFX7LDRFWcVNTVt-129" value="" style="endArrow=none;html=1;rounded=0;exitX=0.5;exitY=1;exitDx=0;exitDy=0;entryX=0;entryY=0;entryDx=0;entryDy=0;" parent="1" source="Kc346eFX7LDRFWcVNTVt-111" target="Kc346eFX7LDRFWcVNTVt-4" edge="1">
          <mxGeometry relative="1" as="geometry">
            <mxPoint x="-45" y="525" as="sourcePoint" />
            <mxPoint x="115" y="525" as="targetPoint" />
          </mxGeometry>
        </mxCell>
        <mxCell id="Kc346eFX7LDRFWcVNTVt-132" value="code" style="ellipse;whiteSpace=wrap;html=1;align=center;fontStyle=4;" parent="1" vertex="1">
          <mxGeometry x="35.25" y="640" width="69" height="30" as="geometry" />
        </mxCell>
        <mxCell id="Kc346eFX7LDRFWcVNTVt-135" value="Active" style="ellipse;whiteSpace=wrap;html=1;align=center;" parent="1" vertex="1">
          <mxGeometry x="211.5" y="675" width="50" height="25" as="geometry" />
        </mxCell>
        <mxCell id="Kc346eFX7LDRFWcVNTVt-136" value="" style="endArrow=none;html=1;rounded=0;entryX=0.25;entryY=1;entryDx=0;entryDy=0;exitX=1;exitY=0;exitDx=0;exitDy=0;" parent="1" source="Kc346eFX7LDRFWcVNTVt-135" target="Kc346eFX7LDRFWcVNTVt-41" edge="1">
          <mxGeometry relative="1" as="geometry">
            <mxPoint x="247.04" y="550.5" as="sourcePoint" />
            <mxPoint x="407.03999999999996" y="550.5" as="targetPoint" />
          </mxGeometry>
        </mxCell>
        <mxCell id="Kc346eFX7LDRFWcVNTVt-141" value="" style="endArrow=none;html=1;rounded=0;entryX=0;entryY=0;entryDx=0;entryDy=0;exitX=0.5;exitY=1;exitDx=0;exitDy=0;jumpStyle=arc;" parent="1" source="Kc346eFX7LDRFWcVNTVt-132" target="Kc346eFX7LDRFWcVNTVt-33" edge="1">
          <mxGeometry relative="1" as="geometry">
            <mxPoint x="40" y="670" as="sourcePoint" />
            <mxPoint x="200" y="670" as="targetPoint" />
          </mxGeometry>
        </mxCell>
        <mxCell id="Kc346eFX7LDRFWcVNTVt-148" value="" style="endArrow=none;html=1;rounded=0;entryX=0;entryY=0;entryDx=0;entryDy=0;exitX=1;exitY=1;exitDx=0;exitDy=0;" parent="1" source="Kc346eFX7LDRFWcVNTVt-112" target="Kc346eFX7LDRFWcVNTVt-3" edge="1">
          <mxGeometry relative="1" as="geometry">
            <mxPoint x="573.5" y="700" as="sourcePoint" />
            <mxPoint x="733.5" y="700" as="targetPoint" />
          </mxGeometry>
        </mxCell>
        <mxCell id="Kc346eFX7LDRFWcVNTVt-149" value="Mark" style="ellipse;whiteSpace=wrap;html=1;align=center;" parent="1" vertex="1">
          <mxGeometry x="130.01999999999998" y="406" width="81.48" height="30" as="geometry" />
        </mxCell>
        <mxCell id="Kc346eFX7LDRFWcVNTVt-150" value="" style="endArrow=none;html=1;rounded=0;exitX=1;exitY=0;exitDx=0;exitDy=0;entryX=0;entryY=1;entryDx=0;entryDy=0;" parent="1" source="Kc346eFX7LDRFWcVNTVt-7" target="Kc346eFX7LDRFWcVNTVt-149" edge="1">
          <mxGeometry relative="1" as="geometry">
            <mxPoint x="230" y="360" as="sourcePoint" />
            <mxPoint x="390" y="360" as="targetPoint" />
          </mxGeometry>
        </mxCell>
        <mxCell id="Kc346eFX7LDRFWcVNTVt-183" value="Belong" style="shape=rhombus;perimeter=rhombusPerimeter;whiteSpace=wrap;html=1;align=center;" parent="1" vertex="1">
          <mxGeometry x="104.25" y="546" width="85.75" height="44" as="geometry" />
        </mxCell>
        <mxCell id="Kc346eFX7LDRFWcVNTVt-184" value="" style="shape=link;html=1;rounded=0;exitX=1;exitY=0.5;exitDx=0;exitDy=0;entryX=0;entryY=0.5;entryDx=0;entryDy=0;" parent="1" source="Kc346eFX7LDRFWcVNTVt-183" target="Kc346eFX7LDRFWcVNTVt-41" edge="1">
          <mxGeometry relative="1" as="geometry">
            <mxPoint x="220" y="440" as="sourcePoint" />
            <mxPoint x="380" y="440" as="targetPoint" />
          </mxGeometry>
        </mxCell>
        <mxCell id="Kc346eFX7LDRFWcVNTVt-185" value="&amp;nbsp;N&amp;nbsp;" style="edgeLabel;html=1;align=center;verticalAlign=middle;resizable=0;points=[];" parent="Kc346eFX7LDRFWcVNTVt-184" vertex="1" connectable="0">
          <mxGeometry x="-0.076" y="1" relative="1" as="geometry">
            <mxPoint as="offset" />
          </mxGeometry>
        </mxCell>
        <mxCell id="Kc346eFX7LDRFWcVNTVt-186" value="" style="endArrow=none;html=1;rounded=0;exitX=1;exitY=0.25;exitDx=0;exitDy=0;entryX=0;entryY=0.5;entryDx=0;entryDy=0;" parent="1" source="Kc346eFX7LDRFWcVNTVt-4" target="Kc346eFX7LDRFWcVNTVt-183" edge="1">
          <mxGeometry relative="1" as="geometry">
            <mxPoint x="220" y="440" as="sourcePoint" />
            <mxPoint x="380" y="440" as="targetPoint" />
          </mxGeometry>
        </mxCell>
        <mxCell id="Kc346eFX7LDRFWcVNTVt-187" value="&amp;nbsp;1&amp;nbsp;" style="edgeLabel;html=1;align=center;verticalAlign=middle;resizable=0;points=[];" parent="Kc346eFX7LDRFWcVNTVt-186" vertex="1" connectable="0">
          <mxGeometry x="-0.0515" y="1" relative="1" as="geometry">
            <mxPoint as="offset" />
          </mxGeometry>
        </mxCell>
        <mxCell id="o7rqWQwtovwrpLKHl_KK-1" value="Activated" style="ellipse;whiteSpace=wrap;html=1;align=center;" parent="1" vertex="1">
          <mxGeometry x="530" y="100" width="64" height="25" as="geometry" />
        </mxCell>
        <mxCell id="o7rqWQwtovwrpLKHl_KK-2" value="" style="endArrow=none;html=1;rounded=0;entryX=0.658;entryY=0.034;entryDx=0;entryDy=0;entryPerimeter=0;exitX=0.5;exitY=1;exitDx=0;exitDy=0;" parent="1" source="o7rqWQwtovwrpLKHl_KK-1" target="Kc346eFX7LDRFWcVNTVt-5" edge="1">
          <mxGeometry width="50" height="50" relative="1" as="geometry">
            <mxPoint x="560" y="120" as="sourcePoint" />
            <mxPoint x="650" y="210" as="targetPoint" />
          </mxGeometry>
        </mxCell>
        <mxCell id="o7rqWQwtovwrpLKHl_KK-4" value="Activated" style="ellipse;whiteSpace=wrap;html=1;align=center;" parent="1" vertex="1">
          <mxGeometry x="351.25" y="645" width="64" height="25" as="geometry" />
        </mxCell>
        <mxCell id="o7rqWQwtovwrpLKHl_KK-5" value="" style="endArrow=none;html=1;rounded=0;exitX=0;exitY=0.5;exitDx=0;exitDy=0;entryX=0.75;entryY=1;entryDx=0;entryDy=0;" parent="1" source="o7rqWQwtovwrpLKHl_KK-4" target="Kc346eFX7LDRFWcVNTVt-41" edge="1">
          <mxGeometry width="50" height="50" relative="1" as="geometry">
            <mxPoint x="390" y="563" as="sourcePoint" />
            <mxPoint x="380" y="590" as="targetPoint" />
          </mxGeometry>
        </mxCell>
        <mxCell id="o5y8hUZktcfQGUOXwAwO-18" value="Departments" style="whiteSpace=wrap;html=1;align=center;" parent="1" vertex="1">
          <mxGeometry x="-200" y="446" width="100" height="40" as="geometry" />
        </mxCell>
        <mxCell id="o5y8hUZktcfQGUOXwAwO-24" value="Belong" style="shape=rhombus;perimeter=rhombusPerimeter;whiteSpace=wrap;html=1;align=center;" parent="1" vertex="1">
          <mxGeometry x="-100" y="383" width="90" height="47" as="geometry" />
        </mxCell>
        <mxCell id="o5y8hUZktcfQGUOXwAwO-25" value="" style="endArrow=none;html=1;rounded=0;exitX=0;exitY=0.5;exitDx=0;exitDy=0;entryX=1;entryY=0;entryDx=0;entryDy=0;" parent="1" source="o5y8hUZktcfQGUOXwAwO-24" target="o5y8hUZktcfQGUOXwAwO-18" edge="1">
          <mxGeometry relative="1" as="geometry">
            <mxPoint x="10" y="380" as="sourcePoint" />
            <mxPoint x="170" y="380" as="targetPoint" />
          </mxGeometry>
        </mxCell>
        <mxCell id="o5y8hUZktcfQGUOXwAwO-26" value="1" style="edgeLabel;html=1;align=center;verticalAlign=middle;resizable=0;points=[];" parent="o5y8hUZktcfQGUOXwAwO-25" vertex="1" connectable="0">
          <mxGeometry x="0.0296" y="4" relative="1" as="geometry">
            <mxPoint x="-3" y="-1" as="offset" />
          </mxGeometry>
        </mxCell>
        <mxCell id="o5y8hUZktcfQGUOXwAwO-27" value="" style="endArrow=none;html=1;rounded=0;exitX=1;exitY=0;exitDx=0;exitDy=0;entryX=0;entryY=1;entryDx=0;entryDy=0;" parent="1" source="o5y8hUZktcfQGUOXwAwO-24" target="Kc346eFX7LDRFWcVNTVt-1" edge="1">
          <mxGeometry relative="1" as="geometry">
            <mxPoint x="70" y="380" as="sourcePoint" />
            <mxPoint x="230" y="380" as="targetPoint" />
          </mxGeometry>
        </mxCell>
        <mxCell id="o5y8hUZktcfQGUOXwAwO-28" value="M" style="edgeLabel;html=1;align=center;verticalAlign=middle;resizable=0;points=[];" parent="o5y8hUZktcfQGUOXwAwO-27" vertex="1" connectable="0">
          <mxGeometry x="-0.209" y="-5" relative="1" as="geometry">
            <mxPoint x="6" y="-10" as="offset" />
          </mxGeometry>
        </mxCell>
        <mxCell id="o5y8hUZktcfQGUOXwAwO-29" value="Departments" style="whiteSpace=wrap;html=1;align=center;" parent="1" vertex="1">
          <mxGeometry x="1020" y="531" width="100" height="40" as="geometry" />
        </mxCell>
        <mxCell id="o5y8hUZktcfQGUOXwAwO-30" value="Belong" style="shape=rhombus;perimeter=rhombusPerimeter;whiteSpace=wrap;html=1;align=center;" parent="1" vertex="1">
          <mxGeometry x="1020" y="439" width="90" height="47" as="geometry" />
        </mxCell>
        <mxCell id="o5y8hUZktcfQGUOXwAwO-31" value="" style="endArrow=none;html=1;rounded=0;exitX=0.5;exitY=1;exitDx=0;exitDy=0;entryX=0.5;entryY=0;entryDx=0;entryDy=0;" parent="1" source="o5y8hUZktcfQGUOXwAwO-30" target="o5y8hUZktcfQGUOXwAwO-29" edge="1">
          <mxGeometry relative="1" as="geometry">
            <mxPoint x="1260" y="494.94" as="sourcePoint" />
            <mxPoint x="1420" y="494.94" as="targetPoint" />
          </mxGeometry>
        </mxCell>
        <mxCell id="o5y8hUZktcfQGUOXwAwO-32" value="1" style="edgeLabel;html=1;align=center;verticalAlign=middle;resizable=0;points=[];" parent="o5y8hUZktcfQGUOXwAwO-31" vertex="1" connectable="0">
          <mxGeometry x="0.0296" y="4" relative="1" as="geometry">
            <mxPoint x="-3" y="-1" as="offset" />
          </mxGeometry>
        </mxCell>
        <mxCell id="o5y8hUZktcfQGUOXwAwO-33" value="" style="endArrow=none;html=1;rounded=0;exitX=0.5;exitY=0;exitDx=0;exitDy=0;entryX=0.75;entryY=1;entryDx=0;entryDy=0;" parent="1" source="o5y8hUZktcfQGUOXwAwO-30" target="Kc346eFX7LDRFWcVNTVt-2" edge="1">
          <mxGeometry relative="1" as="geometry">
            <mxPoint x="1320" y="494.94" as="sourcePoint" />
            <mxPoint x="1360" y="434.94" as="targetPoint" />
          </mxGeometry>
        </mxCell>
        <mxCell id="o5y8hUZktcfQGUOXwAwO-35" value="Departments" style="whiteSpace=wrap;html=1;align=center;" parent="1" vertex="1">
          <mxGeometry x="-197.50000000000003" y="762.12" width="100" height="40" as="geometry" />
        </mxCell>
        <mxCell id="o5y8hUZktcfQGUOXwAwO-36" value="Belong" style="shape=rhombus;perimeter=rhombusPerimeter;whiteSpace=wrap;html=1;align=center;" parent="1" vertex="1">
          <mxGeometry x="-110" y="700" width="90" height="47" as="geometry" />
        </mxCell>
        <mxCell id="o5y8hUZktcfQGUOXwAwO-37" value="" style="endArrow=none;html=1;rounded=0;exitX=0;exitY=0.5;exitDx=0;exitDy=0;entryX=1;entryY=0;entryDx=0;entryDy=0;" parent="1" source="o5y8hUZktcfQGUOXwAwO-36" target="o5y8hUZktcfQGUOXwAwO-35" edge="1">
          <mxGeometry relative="1" as="geometry">
            <mxPoint x="42.49999999999999" y="690" as="sourcePoint" />
            <mxPoint x="202.49999999999997" y="690" as="targetPoint" />
          </mxGeometry>
        </mxCell>
        <mxCell id="o5y8hUZktcfQGUOXwAwO-38" value="1" style="edgeLabel;html=1;align=center;verticalAlign=middle;resizable=0;points=[];" parent="o5y8hUZktcfQGUOXwAwO-37" vertex="1" connectable="0">
          <mxGeometry x="0.0296" y="4" relative="1" as="geometry">
            <mxPoint x="-3" y="-1" as="offset" />
          </mxGeometry>
        </mxCell>
        <mxCell id="o5y8hUZktcfQGUOXwAwO-39" value="" style="endArrow=none;html=1;rounded=0;exitX=1;exitY=0.5;exitDx=0;exitDy=0;entryX=0;entryY=0.5;entryDx=0;entryDy=0;jumpStyle=arc;" parent="1" source="o5y8hUZktcfQGUOXwAwO-36" target="Kc346eFX7LDRFWcVNTVt-33" edge="1">
          <mxGeometry relative="1" as="geometry">
            <mxPoint x="102.5" y="690" as="sourcePoint" />
            <mxPoint x="142.49999999999997" y="630" as="targetPoint" />
          </mxGeometry>
        </mxCell>
        <mxCell id="o5y8hUZktcfQGUOXwAwO-40" value="M" style="edgeLabel;html=1;align=center;verticalAlign=middle;resizable=0;points=[];" parent="o5y8hUZktcfQGUOXwAwO-39" vertex="1" connectable="0">
          <mxGeometry x="-0.209" y="-5" relative="1" as="geometry">
            <mxPoint x="6" y="-10" as="offset" />
          </mxGeometry>
        </mxCell>
        <mxCell id="o5y8hUZktcfQGUOXwAwO-41" value="Places" style="whiteSpace=wrap;html=1;align=center;" parent="1" vertex="1">
          <mxGeometry x="395" y="348" width="100" height="40" as="geometry" />
        </mxCell>
        <mxCell id="o5y8hUZktcfQGUOXwAwO-42" value="In" style="shape=rhombus;perimeter=rhombusPerimeter;whiteSpace=wrap;html=1;align=center;" parent="1" vertex="1">
          <mxGeometry x="425" y="260" width="75" height="40" as="geometry" />
        </mxCell>
        <mxCell id="o5y8hUZktcfQGUOXwAwO-43" value="" style="endArrow=none;html=1;rounded=0;entryX=0.5;entryY=0;entryDx=0;entryDy=0;exitX=0.338;exitY=0.962;exitDx=0;exitDy=0;exitPerimeter=0;" parent="1" source="Kc346eFX7LDRFWcVNTVt-5" target="o5y8hUZktcfQGUOXwAwO-42" edge="1">
          <mxGeometry relative="1" as="geometry">
            <mxPoint x="520" y="220" as="sourcePoint" />
            <mxPoint x="600" y="380" as="targetPoint" />
          </mxGeometry>
        </mxCell>
        <mxCell id="o5y8hUZktcfQGUOXwAwO-44" value="M" style="edgeLabel;html=1;align=center;verticalAlign=middle;resizable=0;points=[];" parent="o5y8hUZktcfQGUOXwAwO-43" vertex="1" connectable="0">
          <mxGeometry x="0.2182" y="-2" relative="1" as="geometry">
            <mxPoint as="offset" />
          </mxGeometry>
        </mxCell>
        <mxCell id="o5y8hUZktcfQGUOXwAwO-45" value="" style="endArrow=none;html=1;rounded=0;exitX=0.5;exitY=1;exitDx=0;exitDy=0;entryX=0.5;entryY=0;entryDx=0;entryDy=0;" parent="1" source="o5y8hUZktcfQGUOXwAwO-42" target="o5y8hUZktcfQGUOXwAwO-41" edge="1">
          <mxGeometry relative="1" as="geometry">
            <mxPoint x="440" y="380" as="sourcePoint" />
            <mxPoint x="520" y="410" as="targetPoint" />
          </mxGeometry>
        </mxCell>
        <mxCell id="o5y8hUZktcfQGUOXwAwO-46" value="1" style="edgeLabel;html=1;align=center;verticalAlign=middle;resizable=0;points=[];" parent="o5y8hUZktcfQGUOXwAwO-45" vertex="1" connectable="0">
          <mxGeometry x="-0.0104" y="-4" relative="1" as="geometry">
            <mxPoint x="2" as="offset" />
          </mxGeometry>
        </mxCell>
        <mxCell id="o5y8hUZktcfQGUOXwAwO-47" value="In" style="shape=rhombus;perimeter=rhombusPerimeter;whiteSpace=wrap;html=1;align=center;" parent="1" vertex="1">
          <mxGeometry x="380" y="430" width="80" height="40" as="geometry" />
        </mxCell>
        <mxCell id="o5y8hUZktcfQGUOXwAwO-48" value="" style="endArrow=none;html=1;rounded=0;exitX=0.5;exitY=0;exitDx=0;exitDy=0;entryX=0.5;entryY=1;entryDx=0;entryDy=0;" parent="1" source="o5y8hUZktcfQGUOXwAwO-47" target="o5y8hUZktcfQGUOXwAwO-41" edge="1">
          <mxGeometry relative="1" as="geometry">
            <mxPoint x="440" y="480" as="sourcePoint" />
            <mxPoint x="600" y="480" as="targetPoint" />
          </mxGeometry>
        </mxCell>
        <mxCell id="o5y8hUZktcfQGUOXwAwO-49" value="1" style="edgeLabel;html=1;align=center;verticalAlign=middle;resizable=0;points=[];" parent="o5y8hUZktcfQGUOXwAwO-48" vertex="1" connectable="0">
          <mxGeometry x="-0.1145" y="1" relative="1" as="geometry">
            <mxPoint y="1" as="offset" />
          </mxGeometry>
        </mxCell>
        <mxCell id="o5y8hUZktcfQGUOXwAwO-50" value="" style="endArrow=none;html=1;rounded=0;entryX=0.5;entryY=1;entryDx=0;entryDy=0;exitX=1;exitY=0;exitDx=0;exitDy=0;jumpStyle=arc;jumpSize=10;" parent="1" source="Kc346eFX7LDRFWcVNTVt-41" target="o5y8hUZktcfQGUOXwAwO-47" edge="1">
          <mxGeometry relative="1" as="geometry">
            <mxPoint x="360" y="570" as="sourcePoint" />
            <mxPoint x="600" y="480" as="targetPoint" />
          </mxGeometry>
        </mxCell>
        <mxCell id="o5y8hUZktcfQGUOXwAwO-51" value="N" style="edgeLabel;html=1;align=center;verticalAlign=middle;resizable=0;points=[];" parent="o5y8hUZktcfQGUOXwAwO-50" vertex="1" connectable="0">
          <mxGeometry x="0.0171" relative="1" as="geometry">
            <mxPoint x="-9" y="7" as="offset" />
          </mxGeometry>
        </mxCell>
        <mxCell id="KKD49QApAfMUJWGPO-2e-3" value="" style="endArrow=none;html=1;rounded=0;entryX=0.133;entryY=-0.039;entryDx=0;entryDy=0;exitX=1;exitY=1;exitDx=0;exitDy=0;entryPerimeter=0;" edge="1" parent="1" source="KKD49QApAfMUJWGPO-2e-4" target="Kc346eFX7LDRFWcVNTVt-1">
          <mxGeometry relative="1" as="geometry">
            <mxPoint x="-20" y="190" as="sourcePoint" />
            <mxPoint x="30" y="210" as="targetPoint" />
          </mxGeometry>
        </mxCell>
        <mxCell id="KKD49QApAfMUJWGPO-2e-4" value="Code" style="ellipse;whiteSpace=wrap;html=1;align=center;fontStyle=4;" vertex="1" parent="1">
          <mxGeometry x="-30" y="150" width="60" height="30" as="geometry" />
        </mxCell>
        <mxCell id="KKD49QApAfMUJWGPO-2e-6" value="" style="endArrow=none;html=1;rounded=0;entryX=1;entryY=1;entryDx=0;entryDy=0;exitX=0;exitY=0;exitDx=0;exitDy=0;" edge="1" parent="1" source="KKD49QApAfMUJWGPO-2e-7" target="Kc346eFX7LDRFWcVNTVt-6">
          <mxGeometry relative="1" as="geometry">
            <mxPoint x="870" y="650" as="sourcePoint" />
            <mxPoint x="880" y="680" as="targetPoint" />
          </mxGeometry>
        </mxCell>
        <mxCell id="KKD49QApAfMUJWGPO-2e-7" value="Code" style="ellipse;whiteSpace=wrap;html=1;align=center;fontStyle=4;" vertex="1" parent="1">
          <mxGeometry x="890" y="625" width="60" height="30" as="geometry" />
        </mxCell>
        <mxCell id="KKD49QApAfMUJWGPO-2e-11" value="Images" style="rounded=0;arcSize=10;whiteSpace=wrap;html=1;align=center;" vertex="1" parent="1">
          <mxGeometry x="875" y="740" width="100" height="40" as="geometry" />
        </mxCell>
        <mxCell id="KKD49QApAfMUJWGPO-2e-12" value="id" style="ellipse;whiteSpace=wrap;html=1;align=center;fontStyle=4;" vertex="1" parent="1">
          <mxGeometry x="810" y="690" width="65" height="25" as="geometry" />
        </mxCell>
        <mxCell id="KKD49QApAfMUJWGPO-2e-13" value="" style="endArrow=none;html=1;rounded=0;entryX=0;entryY=0;entryDx=0;entryDy=0;exitX=1;exitY=1;exitDx=0;exitDy=0;" edge="1" parent="1" source="KKD49QApAfMUJWGPO-2e-12" target="KKD49QApAfMUJWGPO-2e-11">
          <mxGeometry relative="1" as="geometry">
            <mxPoint x="793.5" y="721.25" as="sourcePoint" />
            <mxPoint x="953.5" y="721.25" as="targetPoint" />
          </mxGeometry>
        </mxCell>
        <mxCell id="KKD49QApAfMUJWGPO-2e-14" value="has" style="shape=rhombus;perimeter=rhombusPerimeter;whiteSpace=wrap;html=1;align=center;" vertex="1" parent="1">
          <mxGeometry x="740" y="732.5" width="70" height="47.5" as="geometry" />
        </mxCell>
        <mxCell id="KKD49QApAfMUJWGPO-2e-15" value="" style="endArrow=none;html=1;rounded=0;entryX=0;entryY=0.5;entryDx=0;entryDy=0;exitX=1;exitY=0.5;exitDx=0;exitDy=0;" edge="1" parent="1" source="Kc346eFX7LDRFWcVNTVt-3" target="KKD49QApAfMUJWGPO-2e-14">
          <mxGeometry relative="1" as="geometry">
            <mxPoint x="580" y="700" as="sourcePoint" />
            <mxPoint x="740" y="700" as="targetPoint" />
          </mxGeometry>
        </mxCell>
        <mxCell id="KKD49QApAfMUJWGPO-2e-16" value="1" style="edgeLabel;html=1;align=center;verticalAlign=middle;resizable=0;points=[];" vertex="1" connectable="0" parent="KKD49QApAfMUJWGPO-2e-15">
          <mxGeometry x="-0.1876" y="-1" relative="1" as="geometry">
            <mxPoint as="offset" />
          </mxGeometry>
        </mxCell>
        <mxCell id="KKD49QApAfMUJWGPO-2e-17" value="" style="shape=link;html=1;rounded=0;entryX=0;entryY=0.25;entryDx=0;entryDy=0;exitX=1;exitY=0.5;exitDx=0;exitDy=0;" edge="1" parent="1" source="KKD49QApAfMUJWGPO-2e-14" target="KKD49QApAfMUJWGPO-2e-11">
          <mxGeometry relative="1" as="geometry">
            <mxPoint x="580" y="700" as="sourcePoint" />
            <mxPoint x="740" y="700" as="targetPoint" />
          </mxGeometry>
        </mxCell>
        <mxCell id="KKD49QApAfMUJWGPO-2e-19" value="&amp;nbsp;N&amp;nbsp;" style="edgeLabel;html=1;align=center;verticalAlign=middle;resizable=0;points=[];" vertex="1" connectable="0" parent="KKD49QApAfMUJWGPO-2e-17">
          <mxGeometry x="-0.1486" relative="1" as="geometry">
            <mxPoint as="offset" />
          </mxGeometry>
        </mxCell>
        <mxCell id="KKD49QApAfMUJWGPO-2e-22" value="id" style="ellipse;whiteSpace=wrap;html=1;align=center;fontStyle=4;" vertex="1" parent="1">
          <mxGeometry x="330" y="300" width="65" height="25" as="geometry" />
        </mxCell>
        <mxCell id="KKD49QApAfMUJWGPO-2e-23" value="" style="endArrow=none;html=1;rounded=0;entryX=0;entryY=0;entryDx=0;entryDy=0;exitX=1;exitY=1;exitDx=0;exitDy=0;" edge="1" parent="1" source="KKD49QApAfMUJWGPO-2e-22" target="o5y8hUZktcfQGUOXwAwO-41">
          <mxGeometry relative="1" as="geometry">
            <mxPoint x="422.5" y="340" as="sourcePoint" />
            <mxPoint x="479" y="372.5" as="targetPoint" />
          </mxGeometry>
        </mxCell>
        <mxCell id="KKD49QApAfMUJWGPO-2e-24" value="Id" style="ellipse;whiteSpace=wrap;html=1;align=center;fontStyle=4;" vertex="1" parent="1">
          <mxGeometry x="1080" y="610" width="65" height="40" as="geometry" />
        </mxCell>
        <mxCell id="KKD49QApAfMUJWGPO-2e-25" value="" style="endArrow=none;html=1;rounded=0;exitX=0.346;exitY=-0.069;exitDx=0;exitDy=0;entryX=0.5;entryY=1;entryDx=0;entryDy=0;exitPerimeter=0;" edge="1" parent="1" source="KKD49QApAfMUJWGPO-2e-24" target="o5y8hUZktcfQGUOXwAwO-29">
          <mxGeometry relative="1" as="geometry">
            <mxPoint x="860" y="793.5" as="sourcePoint" />
            <mxPoint x="1020" y="600" as="targetPoint" />
          </mxGeometry>
        </mxCell>
        <mxCell id="KKD49QApAfMUJWGPO-2e-26" value="Id" style="ellipse;whiteSpace=wrap;html=1;align=center;fontStyle=4;" vertex="1" parent="1">
          <mxGeometry x="-190" y="520" width="65" height="40" as="geometry" />
        </mxCell>
        <mxCell id="KKD49QApAfMUJWGPO-2e-27" value="" style="endArrow=none;html=1;rounded=0;exitX=0.5;exitY=0;exitDx=0;exitDy=0;entryX=0.4;entryY=1.1;entryDx=0;entryDy=0;entryPerimeter=0;" edge="1" parent="1" source="KKD49QApAfMUJWGPO-2e-26" target="o5y8hUZktcfQGUOXwAwO-18">
          <mxGeometry relative="1" as="geometry">
            <mxPoint x="-410" y="703.5" as="sourcePoint" />
            <mxPoint x="-200" y="481" as="targetPoint" />
          </mxGeometry>
        </mxCell>
        <mxCell id="KKD49QApAfMUJWGPO-2e-28" value="Id" style="ellipse;whiteSpace=wrap;html=1;align=center;fontStyle=4;" vertex="1" parent="1">
          <mxGeometry x="-210" y="664" width="65" height="40" as="geometry" />
        </mxCell>
        <mxCell id="KKD49QApAfMUJWGPO-2e-29" value="" style="endArrow=none;html=1;rounded=0;exitX=0.5;exitY=1;exitDx=0;exitDy=0;entryX=0.25;entryY=0;entryDx=0;entryDy=0;" edge="1" parent="1" source="KKD49QApAfMUJWGPO-2e-28" target="o5y8hUZktcfQGUOXwAwO-35">
          <mxGeometry relative="1" as="geometry">
            <mxPoint x="-430" y="847.5" as="sourcePoint" />
            <mxPoint x="-170" y="760" as="targetPoint" />
          </mxGeometry>
        </mxCell>
        <mxCell id="KKD49QApAfMUJWGPO-2e-57" value="Weeks" style="whiteSpace=wrap;html=1;align=center;" vertex="1" parent="1">
          <mxGeometry x="540" y="375" width="100" height="40" as="geometry" />
        </mxCell>
        <mxCell id="KKD49QApAfMUJWGPO-2e-58" value="At" style="shape=rhombus;perimeter=rhombusPerimeter;whiteSpace=wrap;html=1;align=center;" vertex="1" parent="1">
          <mxGeometry x="530" y="300" width="75" height="40" as="geometry" />
        </mxCell>
        <mxCell id="KKD49QApAfMUJWGPO-2e-59" value="" style="endArrow=none;html=1;rounded=0;entryX=0.5;entryY=0;entryDx=0;entryDy=0;exitX=0.75;exitY=1;exitDx=0;exitDy=0;" edge="1" parent="1" target="KKD49QApAfMUJWGPO-2e-58" source="Kc346eFX7LDRFWcVNTVt-5">
          <mxGeometry relative="1" as="geometry">
            <mxPoint x="560" y="180" as="sourcePoint" />
            <mxPoint x="666" y="415" as="targetPoint" />
          </mxGeometry>
        </mxCell>
        <mxCell id="KKD49QApAfMUJWGPO-2e-60" value="M" style="edgeLabel;html=1;align=center;verticalAlign=middle;resizable=0;points=[];" vertex="1" connectable="0" parent="KKD49QApAfMUJWGPO-2e-59">
          <mxGeometry x="0.2182" y="-2" relative="1" as="geometry">
            <mxPoint as="offset" />
          </mxGeometry>
        </mxCell>
        <mxCell id="KKD49QApAfMUJWGPO-2e-61" value="" style="endArrow=none;html=1;rounded=0;exitX=0.5;exitY=1;exitDx=0;exitDy=0;entryX=0.5;entryY=0;entryDx=0;entryDy=0;" edge="1" parent="1" source="KKD49QApAfMUJWGPO-2e-58" target="KKD49QApAfMUJWGPO-2e-57">
          <mxGeometry relative="1" as="geometry">
            <mxPoint x="506" y="415" as="sourcePoint" />
            <mxPoint x="586" y="445" as="targetPoint" />
          </mxGeometry>
        </mxCell>
        <mxCell id="KKD49QApAfMUJWGPO-2e-62" value="1" style="edgeLabel;html=1;align=center;verticalAlign=middle;resizable=0;points=[];" vertex="1" connectable="0" parent="KKD49QApAfMUJWGPO-2e-61">
          <mxGeometry x="-0.0104" y="-4" relative="1" as="geometry">
            <mxPoint x="2" as="offset" />
          </mxGeometry>
        </mxCell>
        <mxCell id="KKD49QApAfMUJWGPO-2e-63" value="At" style="shape=rhombus;perimeter=rhombusPerimeter;whiteSpace=wrap;html=1;align=center;" vertex="1" parent="1">
          <mxGeometry x="490" y="462.5" width="80" height="40" as="geometry" />
        </mxCell>
        <mxCell id="KKD49QApAfMUJWGPO-2e-64" value="" style="endArrow=none;html=1;rounded=0;exitX=0.5;exitY=0;exitDx=0;exitDy=0;entryX=0.5;entryY=1;entryDx=0;entryDy=0;" edge="1" parent="1" source="KKD49QApAfMUJWGPO-2e-63" target="KKD49QApAfMUJWGPO-2e-57">
          <mxGeometry relative="1" as="geometry">
            <mxPoint x="506" y="515" as="sourcePoint" />
            <mxPoint x="666" y="515" as="targetPoint" />
          </mxGeometry>
        </mxCell>
        <mxCell id="KKD49QApAfMUJWGPO-2e-65" value="1" style="edgeLabel;html=1;align=center;verticalAlign=middle;resizable=0;points=[];" vertex="1" connectable="0" parent="KKD49QApAfMUJWGPO-2e-64">
          <mxGeometry x="-0.1145" y="1" relative="1" as="geometry">
            <mxPoint y="1" as="offset" />
          </mxGeometry>
        </mxCell>
        <mxCell id="KKD49QApAfMUJWGPO-2e-66" value="" style="endArrow=none;html=1;rounded=0;entryX=0.5;entryY=1;entryDx=0;entryDy=0;exitX=1;exitY=0.25;exitDx=0;exitDy=0;jumpStyle=arc;jumpSize=10;" edge="1" parent="1" target="KKD49QApAfMUJWGPO-2e-63" source="Kc346eFX7LDRFWcVNTVt-41">
          <mxGeometry relative="1" as="geometry">
            <mxPoint x="425" y="620" as="sourcePoint" />
            <mxPoint x="666" y="515" as="targetPoint" />
          </mxGeometry>
        </mxCell>
        <mxCell id="KKD49QApAfMUJWGPO-2e-67" value="&amp;nbsp;N&amp;nbsp;" style="edgeLabel;html=1;align=center;verticalAlign=middle;resizable=0;points=[];" vertex="1" connectable="0" parent="KKD49QApAfMUJWGPO-2e-66">
          <mxGeometry x="0.0171" relative="1" as="geometry">
            <mxPoint x="-9" y="7" as="offset" />
          </mxGeometry>
        </mxCell>
        <mxCell id="KKD49QApAfMUJWGPO-2e-68" value="id" style="ellipse;whiteSpace=wrap;html=1;align=center;fontStyle=4;" vertex="1" parent="1">
          <mxGeometry x="605" y="470" width="65" height="25" as="geometry" />
        </mxCell>
        <mxCell id="KKD49QApAfMUJWGPO-2e-69" value="" style="endArrow=none;html=1;rounded=0;entryX=0.75;entryY=1;entryDx=0;entryDy=0;exitX=0.5;exitY=0;exitDx=0;exitDy=0;" edge="1" parent="1" source="KKD49QApAfMUJWGPO-2e-68" target="KKD49QApAfMUJWGPO-2e-57">
          <mxGeometry relative="1" as="geometry">
            <mxPoint x="488.5" y="375" as="sourcePoint" />
            <mxPoint x="545" y="407.5" as="targetPoint" />
          </mxGeometry>
        </mxCell>
      </root>
    </mxGraphModel>
  </diagram>
</mxfile>
